<svg width="105" height="56" viewBox="0 0 105 56" fill="none" xmlns="http://www.w3.org/2000/svg">
<g clip-path="url(#clip0_1_91)">
<path d="M47.6684 40.5133C47.1558 40.1723 46.7014 39.7509 46.3229 39.2653C45.9065 38.7641 45.5206 38.2383 45.1675 37.6907C44.3388 36.4767 43.6889 35.1498 43.2378 33.7509C42.6959 32.1259 42.4334 30.5683 42.4334 29.0449C42.4334 27.3435 42.8015 25.8583 43.5214 24.6103C44.055 23.6348 44.8396 22.8196 45.7939 22.2491C46.7188 21.6747 47.7815 21.3603 48.8701 21.3391C49.2511 21.3391 49.6614 21.3944 50.0969 21.5C50.4098 21.5886 50.7908 21.7283 51.2564 21.9022C51.8487 22.1305 52.1745 22.2703 52.285 22.3044C52.6319 22.4311 52.9236 22.4864 53.1528 22.4864C53.3266 22.4864 53.572 22.4311 53.8507 22.3466C54.0075 22.2914 54.3033 22.1939 54.7266 22.0127C55.1458 21.8599 55.4757 21.7291 55.7381 21.6316C56.1403 21.513 56.5295 21.4033 56.8764 21.3481C57.2877 21.2832 57.7051 21.266 58.1204 21.2969C58.8399 21.3439 59.5487 21.4964 60.2239 21.7494C61.3281 22.1939 62.2211 22.8878 62.8857 23.8741C62.6048 24.0473 62.3411 24.247 62.0984 24.4705C61.5699 24.939 61.1198 25.4889 60.7651 26.0996C60.3014 26.9341 60.061 27.8741 60.0671 28.8288C60.0842 30.0012 60.3848 31.0339 60.9771 31.9268C61.4126 32.5886 61.9785 33.1545 62.6403 33.59C62.9791 33.8183 63.2708 33.9751 63.5503 34.0808C63.4195 34.487 63.2797 34.8803 63.1148 35.2703C62.7407 36.1448 62.2874 36.9833 61.7604 37.7752C61.2908 38.4569 60.9227 38.9647 60.6432 39.3027C60.2077 39.8186 59.7884 40.2127 59.3651 40.4873C58.8996 40.7961 58.3495 40.961 57.7905 40.961C57.4119 40.9755 57.0334 40.9297 56.6693 40.8253C56.3564 40.7197 56.0469 40.6051 55.7422 40.4743C55.4254 40.3288 55.0988 40.2058 54.7648 40.1063C53.939 39.8942 53.0732 39.8928 52.2468 40.1022C51.908 40.1997 51.5822 40.3134 51.2604 40.4532C50.8079 40.6433 50.5073 40.7709 50.3334 40.8253C49.9864 40.9269 49.6265 40.9903 49.2625 41.0114C48.6994 41.0114 48.1746 40.8505 47.6546 40.5247L47.6684 40.5133ZM55.0946 20.5136C54.3585 20.8817 53.6557 21.0385 52.9578 20.9873C52.8481 20.2845 52.9578 19.5654 53.2494 18.7781C53.4978 18.1111 53.8647 17.4945 54.3325 16.9581C54.8265 16.3935 55.426 15.9306 56.0973 15.5956C56.8123 15.2275 57.4939 15.0284 58.1456 14.9992C58.2301 15.7353 58.1456 16.4593 57.875 17.2417C57.6246 17.9334 57.2584 18.5774 56.7919 19.1462C56.3159 19.7116 55.7316 20.1763 55.0735 20.5128L55.0946 20.5136Z" fill="black"/>
</g>
<rect x="0.5" y="0.5" width="104" height="55" rx="7.5" stroke="#DADADA"/>
<defs>
<clipPath id="clip0_1_91">
<rect width="26" height="26" fill="white" transform="translate(40 15)"/>
</clipPath>
</defs>
</svg>
