<svg width="105" height="56" viewBox="0 0 105 56" fill="none" xmlns="http://www.w3.org/2000/svg">
<path d="M46.4201 30.4656L45.5974 33.537L42.5903 33.6007C41.6916 31.9338 41.1818 30.0267 41.1818 28C41.1818 26.0403 41.6584 24.1922 42.5032 22.565H42.5039L45.1811 23.0558L46.3538 25.7169C46.1084 26.4325 45.9746 27.2007 45.9746 28C45.9747 28.8676 46.1318 29.6988 46.4201 30.4656Z" fill="#FBBB00"/>
<path d="M64.6117 25.7922C64.7474 26.5071 64.8182 27.2454 64.8182 28C64.8182 28.8461 64.7292 29.6714 64.5598 30.4675C63.9845 33.1766 62.4812 35.5422 60.3987 37.2162L60.3981 37.2156L57.026 37.0435L56.5488 34.0643C57.9306 33.2539 59.0105 31.9857 59.5793 30.4675H53.2598V25.7922H59.6715H64.6117Z" fill="#518EF8"/>
<path d="M60.3981 37.2156L60.3987 37.2163C58.3734 38.8442 55.8006 39.8182 53 39.8182C48.4994 39.8182 44.5864 37.3026 42.5903 33.6007L46.4201 30.4656C47.4182 33.1293 49.9877 35.0254 53 35.0254C54.2948 35.0254 55.5078 34.6754 56.5487 34.0643L60.3981 37.2156Z" fill="#28B446"/>
<path d="M60.5436 18.9026L56.715 22.037C55.6377 21.3636 54.3643 20.9747 53.0001 20.9747C49.9195 20.9747 47.302 22.9578 46.3539 25.7169L42.5039 22.5649H42.5033C44.4702 18.7727 48.4325 16.1818 53.0001 16.1818C55.8676 16.1818 58.4968 17.2033 60.5436 18.9026Z" fill="#F14336"/>
<rect x="0.5" y="0.5" width="104" height="55" rx="7.5" stroke="#DADADA"/>
</svg>
